<svg xmlns="http://www.w3.org/2000/svg" xmlns:xlink="http://www.w3.org/1999/xlink" version="1.1" id="Layer_1" x="0px" y="0px" width="100px" height="100px" viewBox="-17.283 0 100 100" enable-background="new -17.283 0 100 100" xml:space="preserve" fill="red">
<g>
</g>
<g>
	<path d="M54.101,6.874c-8.296,0-15.021,6.725-15.021,15.021c0,4.081,1.633,7.777,4.275,10.484l4.321-6.008   c0.197-0.38,0.445-0.721,0.739-1.015c0.787-0.786,1.831-1.218,2.941-1.218c1.111,0,2.155,0.433,2.94,1.22   c1.375,1.374,1.608,3.559,0.551,5.194l-0.054,0.083L54.6,30.882c-1.145,1.452-2.614,3.369-4.258,5.541   c1.203,0.311,2.458,0.493,3.759,0.493c8.296,0,15.021-6.725,15.021-15.021C69.121,13.599,62.396,6.874,54.101,6.874z    M42.629,16.852c1.175-2.692,8.567,3.434,8.455,4.249C50.979,21.922,41.489,19.499,42.629,16.852z M53.714,19.226   c-0.778,0.268-2.902-9.298-0.015-9.466C56.614,9.589,54.479,18.955,53.714,19.226z M63.922,31.054   c-1.626,2.42-7.773-4.967-7.51-5.749C56.659,24.529,65.545,28.657,63.922,31.054z M56.731,20.8   c-0.537-0.625,7.642-6.03,8.829-3.405C66.775,20.059,57.261,21.437,56.731,20.8z"/>
</g>
<g>
	<path fill="#000000" d="M53.029,29.644l0.14-0.178c0.549-0.848,0.429-1.98-0.284-2.693c-0.409-0.41-0.951-0.635-1.527-0.635   s-1.119,0.225-1.528,0.634c-0.147,0.147-0.274,0.323-0.377,0.521l-0.067,0.128l-5.699,7.923c0.027,0.02,0.055,0.038,0.081,0.059   l5.719-7.95c0.1-0.221,0.234-0.431,0.416-0.612c0.805-0.804,2.107-0.804,2.91,0c0.699,0.698,0.789,1.773,0.273,2.57   c-0.044,0.056-0.091,0.115-0.136,0.172c-1.529,1.939-3.623,4.688-5.935,7.762c0.03,0.014,0.06,0.027,0.089,0.04l1.644-2.171   C50.507,32.891,51.947,31.016,53.029,29.644z"/>
	<path d="M41.924,33.776l0.234,0.24l0.007-0.009C42.086,33.929,42.002,33.856,41.924,33.776z"/>
	<path d="M41.924,33.776c-0.397-0.407-0.771-0.832-1.122-1.271c-1.022-1.276-1.846-2.678-2.456-4.166c-10.14,0-21.599,0-30.989,0   l19.442,27.039l15.359-21.362L41.924,33.776z"/>
	<path d="M52.812,26.841c-0.803-0.804-2.105-0.804-2.91,0c-0.182,0.182-0.316,0.391-0.416,0.612l-5.719,7.95L26.799,58.991   L4.021,27.327l-0.35-0.486c-0.804-0.804-2.107-0.804-2.911,0c-0.693,0.692-0.785,1.753-0.285,2.548   c0.09,0.114,0.179,0.228,0.273,0.348C7.363,38.203,24.408,61.44,24.408,61.44v23.214c0,0-8.352,3.457-12.047,5.297   c-0.051,0.025-0.103,0.051-0.151,0.075c-0.152,0.104-0.259,0.271-0.259,0.469c0,0.318,0.259,0.578,0.578,0.578   c5.89,0,21.549,0,27.846,0c0.319,0,0.578-0.26,0.578-0.578c0-0.191-0.1-0.354-0.244-0.459c-0.051-0.027-0.105-0.056-0.157-0.083   c-3.475-1.84-11.346-5.299-11.346-5.299V61.44c0,0,10.121-13.868,17.81-24.094c2.312-3.074,4.405-5.823,5.935-7.762   c0.045-0.057,0.092-0.117,0.136-0.172C53.601,28.614,53.511,27.54,52.812,26.841z"/>
</g>
</svg>
