<svg xmlns="http://www.w3.org/2000/svg" xmlns:xlink="http://www.w3.org/1999/xlink" version="1.1" x="0px" y="0px" width="100px" height="100px" viewBox="0 0 100 100" enable-background="new 0 0 100 100" xml:space="preserve">

<g
   id="Your_Icon">
	<path
   style="fill:#4387fd;;stroke:#4387fd;;stroke-opacity:1"
   d="m 50,10 c 13.457,0 24.371,10.909 24.371,24.371 0,13.461 -24.794729,20.510356 -24.794729,20.510356 0,0 -23.947271,-7.049356 -23.947271,-20.510356 C 25.629,20.909 36.542,10 50,10 M 50,0 C 31.048,0 15.629,15.418 15.629,34.371 c 0,4.794 1.409,13.532 13.595,33.982 C 35.456,78.81 41.6,87.444 41.859,87.807 L 50,99.221 58.142,87.807 C 58.4,87.445 64.544,78.81 70.777,68.353 82.963,47.903 84.372,39.165 84.372,34.371 84.371,15.418 68.952,0 50,0 z"
   id="path3876"/>
	<path
   style="fill:#4387fd;;stroke:#4387fd;;stroke-opacity:1;fill-opacity:1"
   d="M60,34c0,5.527-4.466,10-10,10c-5.527,0-10-4.473-10-10c0-5.531,4.473-10,10-10C55.534,24,60,28.469,60,34z"
   id="path3878" />
</g>

</svg>
